<?xml version="1.0" encoding="utf-8"?>
<!-- Uploaded to: SVG Repo, www.svgrepo.com, Generator: SVG Repo Mixer Tools -->
<svg width="30px" height="30px" viewBox="0 0 1024 1024" class="icon"  version="1.1" xmlns="http://www.w3.org/2000/svg"><path d="M213.333333 896h597.333334c46.933333 0 85.333333-38.4 85.333333-85.333333V334.933333c0-34.133333-21.333333-66.133333-55.466667-78.933333L512 128 183.466667 256C149.333333 268.8 128 300.8 128 334.933333V810.666667c0 46.933333 38.4 85.333333 85.333333 85.333333z" fill="#2196F3" /><path d="M704 384H320c-23.466667 0-42.666667 19.2-42.666667 42.666667v256c0 23.466667 19.2 42.666667 42.666667 42.666666h384c23.466667 0 42.666667-19.2 42.666667-42.666666V426.666667c0-23.466667-19.2-42.666667-42.666667-42.666667z" fill="#CFD8DC" /><path d="M704 384H320c-23.466667 0-42.666667 19.2-42.666667 42.666667v21.333333l234.666667 170.666667 234.666667-170.666667v-21.333333c0-23.466667-19.2-42.666667-42.666667-42.666667z" fill="#8E9496" /><path d="M704 384H320c-23.466667 0-42.666667 19.2-42.666667 42.666667v21.333333l234.666667 128 234.666667-128v-21.333333c0-23.466667-19.2-42.666667-42.666667-42.666667z" fill="#EBEFF1" /></svg>